<mxfile host="app.diagrams.net" agent="Mozilla/5.0 (Windows NT 10.0; Win64; x64) AppleWebKit/537.36 (KHTML, like Gecko) Chrome/128.0.0.0 YaBrowser/24.10.0.0 Safari/537.36" version="25.0.3">
  <diagram name="Страница — 1" id="q__kO4_FeBBdaCGFSvWv">
    <mxGraphModel dx="719" dy="402" grid="1" gridSize="10" guides="1" tooltips="1" connect="1" arrows="1" fold="1" page="1" pageScale="1" pageWidth="827" pageHeight="1169" math="0" shadow="0">
      <root>
        <mxCell id="0" />
        <mxCell id="1" parent="0" />
        <mxCell id="TQHFPVpuW6U2N1qFPtr8-1" value="users" style="swimlane;fontStyle=0;childLayout=stackLayout;horizontal=1;startSize=26;fillColor=none;horizontalStack=0;resizeParent=1;resizeParentMax=0;resizeLast=0;collapsible=1;marginBottom=0;whiteSpace=wrap;html=1;" vertex="1" parent="1">
          <mxGeometry x="180" y="430" width="140" height="140" as="geometry" />
        </mxCell>
        <mxCell id="TQHFPVpuW6U2N1qFPtr8-2" value="&lt;b&gt;id: integer&lt;/b&gt;&lt;div&gt;surname: text&lt;/div&gt;&lt;div&gt;name: text&lt;/div&gt;&lt;div&gt;username:text&lt;/div&gt;&lt;div&gt;email: text&lt;/div&gt;&lt;div&gt;password: text&lt;/div&gt;&lt;div&gt;&lt;i&gt;family_id&lt;/i&gt;: int&lt;/div&gt;" style="text;strokeColor=none;fillColor=none;align=left;verticalAlign=top;spacingLeft=4;spacingRight=4;overflow=hidden;rotatable=0;points=[[0,0.5],[1,0.5]];portConstraint=eastwest;whiteSpace=wrap;html=1;" vertex="1" parent="TQHFPVpuW6U2N1qFPtr8-1">
          <mxGeometry y="26" width="140" height="114" as="geometry" />
        </mxCell>
        <mxCell id="TQHFPVpuW6U2N1qFPtr8-3" value="note" style="swimlane;fontStyle=0;childLayout=stackLayout;horizontal=1;startSize=26;fillColor=none;horizontalStack=0;resizeParent=1;resizeParentMax=0;resizeLast=0;collapsible=1;marginBottom=0;whiteSpace=wrap;html=1;" vertex="1" parent="1">
          <mxGeometry x="420" y="440" width="140" height="110" as="geometry" />
        </mxCell>
        <mxCell id="TQHFPVpuW6U2N1qFPtr8-4" value="&lt;b&gt;id: integer&lt;/b&gt;&lt;div&gt;start_time: datetime&lt;/div&gt;&lt;div&gt;end_time: datetime&lt;/div&gt;&lt;div&gt;&lt;i&gt;user_id: int&lt;/i&gt;&lt;/div&gt;&lt;div&gt;note: text&lt;/div&gt;&lt;div&gt;&lt;i&gt;&lt;br&gt;&lt;/i&gt;&lt;/div&gt;" style="text;strokeColor=none;fillColor=none;align=left;verticalAlign=top;spacingLeft=4;spacingRight=4;overflow=hidden;rotatable=0;points=[[0,0.5],[1,0.5]];portConstraint=eastwest;whiteSpace=wrap;html=1;" vertex="1" parent="TQHFPVpuW6U2N1qFPtr8-3">
          <mxGeometry y="26" width="140" height="84" as="geometry" />
        </mxCell>
        <mxCell id="TQHFPVpuW6U2N1qFPtr8-5" style="edgeStyle=orthogonalEdgeStyle;rounded=0;orthogonalLoop=1;jettySize=auto;html=1;startArrow=ERmany;startFill=0;endArrow=none;endFill=0;" edge="1" parent="1" source="TQHFPVpuW6U2N1qFPtr8-4">
          <mxGeometry relative="1" as="geometry">
            <mxPoint x="320" y="470" as="targetPoint" />
            <Array as="points">
              <mxPoint x="370" y="520" />
              <mxPoint x="370" y="470" />
              <mxPoint x="320" y="470" />
            </Array>
          </mxGeometry>
        </mxCell>
        <mxCell id="TQHFPVpuW6U2N1qFPtr8-6" value="family" style="swimlane;fontStyle=0;childLayout=stackLayout;horizontal=1;startSize=26;fillColor=none;horizontalStack=0;resizeParent=1;resizeParentMax=0;resizeLast=0;collapsible=1;marginBottom=0;whiteSpace=wrap;html=1;" vertex="1" parent="1">
          <mxGeometry x="180" y="630" width="140" height="70" as="geometry" />
        </mxCell>
        <mxCell id="TQHFPVpuW6U2N1qFPtr8-7" value="&lt;b&gt;id: integer&lt;/b&gt;&lt;div&gt;name: text&lt;/div&gt;" style="text;strokeColor=none;fillColor=none;align=left;verticalAlign=top;spacingLeft=4;spacingRight=4;overflow=hidden;rotatable=0;points=[[0,0.5],[1,0.5]];portConstraint=eastwest;whiteSpace=wrap;html=1;" vertex="1" parent="TQHFPVpuW6U2N1qFPtr8-6">
          <mxGeometry y="26" width="140" height="44" as="geometry" />
        </mxCell>
        <mxCell id="TQHFPVpuW6U2N1qFPtr8-8" style="edgeStyle=orthogonalEdgeStyle;rounded=0;orthogonalLoop=1;jettySize=auto;html=1;startArrow=ERmany;startFill=0;endArrow=none;endFill=0;" edge="1" parent="1" source="TQHFPVpuW6U2N1qFPtr8-2" target="TQHFPVpuW6U2N1qFPtr8-6">
          <mxGeometry relative="1" as="geometry">
            <mxPoint x="440.7" y="638.3400000000001" as="sourcePoint" />
            <mxPoint x="310.00000000000006" y="590.0039999999999" as="targetPoint" />
            <Array as="points">
              <mxPoint x="250" y="600" />
              <mxPoint x="250" y="600" />
            </Array>
          </mxGeometry>
        </mxCell>
      </root>
    </mxGraphModel>
  </diagram>
</mxfile>
